<?xml version="1.0" encoding="utf-8"?>
<!-- Generator: Adobe Illustrator 22.1.0, SVG Export Plug-In . SVG Version: 6.00 Build 0)  -->
<svg version="1.1" id="Layer_1" xmlns="http://www.w3.org/2000/svg" xmlns:xlink="http://www.w3.org/1999/xlink" x="0px" y="0px"
	 viewBox="0 0 32 32" style="enable-background:new 0 0 32 32;" xml:space="preserve">
<style type="text/css">
	.st0{fill:#AA9767;}
</style>
<path class="st0" d="M28,2c-0.1,0-0.1,0.1-0.2,0.2L21.1,16L15.3,1.9h-1.2L9.5,13.1L4.2,2.2C4.1,2.1,4.1,2,4,2S3.8,2,3.7,2H1.1v28.1
	h2.2c0.2,0,0.4-0.1,0.5-0.3l5.3-12.9l6.3,12.9c0.1,0.2,0.3,0.3,0.5,0.3h0.3c0.2,0,0.3-0.1,0.5-0.3l4.8-10l4.1,10
	c0.1,0.2,0.2,0.3,0.4,0.3h0.9l-4.8-11.7l0.8-1.6l5.3,12.9c0.1,0.2,0.2,0.3,0.4,0.3h2.3V1.9h-2.6C28.2,1.9,28.1,2,28,2 M3.5,27.5V5.8
	V5.1l5,10.4L3.5,27.5z M10.1,14.4l4.2-10.1l0.4-1l0.4,1l0.4,0.9L11,16.1L10.1,14.4z M16,26.7l-4.4-9.2l4.5-10.9l4.4,10.8L16,26.7z
	 M28.6,27.5l-5-12.1l5-10.4V27.5z"/>
</svg>
